<svg width="22" height="22" viewBox="0 0 22 22" fill="none" xmlns="http://www.w3.org/2000/svg">
<path d="M5.7062 4.41015C5.53332 4.24317 5.30177 4.15078 5.06142 4.15287C4.82107 4.15496 4.59116 4.25136 4.4212 4.42132C4.25125 4.59128 4.15484 4.82119 4.15275 5.06153C4.15066 5.30188 4.24306 5.53343 4.41004 5.70632L9.70379 11.0001L4.40912 16.2938C4.32157 16.3784 4.25173 16.4795 4.20369 16.5914C4.15565 16.7032 4.13036 16.8235 4.12931 16.9452C4.12825 17.0669 4.15144 17.1876 4.19753 17.3003C4.24362 17.4129 4.31169 17.5153 4.39776 17.6013C4.48383 17.6874 4.58617 17.7555 4.69883 17.8016C4.81148 17.8477 4.93219 17.8709 5.0539 17.8698C5.17562 17.8687 5.2959 17.8435 5.40774 17.7954C5.51958 17.7474 5.62073 17.6775 5.70529 17.59L11 12.2962L16.2937 17.59C16.4666 17.757 16.6981 17.8494 16.9385 17.8473C17.1788 17.8452 17.4087 17.7488 17.5787 17.5788C17.7487 17.4089 17.8451 17.1789 17.8472 16.9386C17.8492 16.6983 17.7568 16.4667 17.5899 16.2938L12.2961 11.0001L17.5899 5.70632C17.7568 5.53343 17.8492 5.30188 17.8472 5.06153C17.8451 4.82119 17.7487 4.59128 17.5787 4.42132C17.4087 4.25136 17.1788 4.15496 16.9385 4.15287C16.6981 4.15078 16.4666 4.24317 16.2937 4.41015L11 9.7039L5.7062 4.41015Z" fill="black"/>
<path d="M5.7062 4.41015C5.53332 4.24317 5.30177 4.15078 5.06142 4.15287C4.82107 4.15496 4.59116 4.25136 4.4212 4.42132C4.25125 4.59128 4.15484 4.82119 4.15275 5.06153C4.15066 5.30188 4.24306 5.53343 4.41004 5.70632L9.70379 11.0001L4.40912 16.2938C4.32157 16.3784 4.25173 16.4795 4.20369 16.5914C4.15565 16.7032 4.13036 16.8235 4.12931 16.9452C4.12825 17.0669 4.15144 17.1876 4.19753 17.3003C4.24362 17.4129 4.31169 17.5153 4.39776 17.6013C4.48383 17.6874 4.58617 17.7555 4.69883 17.8016C4.81148 17.8477 4.93219 17.8709 5.0539 17.8698C5.17562 17.8687 5.2959 17.8435 5.40774 17.7954C5.51958 17.7474 5.62073 17.6775 5.70529 17.59L11 12.2962L16.2937 17.59C16.4666 17.757 16.6981 17.8494 16.9385 17.8473C17.1788 17.8452 17.4087 17.7488 17.5787 17.5788C17.7487 17.4089 17.8451 17.1789 17.8472 16.9386C17.8492 16.6983 17.7568 16.4667 17.5899 16.2938L12.2961 11.0001L17.5899 5.70632C17.7568 5.53343 17.8492 5.30188 17.8472 5.06153C17.8451 4.82119 17.7487 4.59128 17.5787 4.42132C17.4087 4.25136 17.1788 4.15496 16.9385 4.15287C16.6981 4.15078 16.4666 4.24317 16.2937 4.41015L11 9.7039L5.7062 4.41015Z" fill="black" fill-opacity="0.2"/>
<path d="M5.7062 4.41015C5.53332 4.24317 5.30177 4.15078 5.06142 4.15287C4.82107 4.15496 4.59116 4.25136 4.4212 4.42132C4.25125 4.59128 4.15484 4.82119 4.15275 5.06153C4.15066 5.30188 4.24306 5.53343 4.41004 5.70632L9.70379 11.0001L4.40912 16.2938C4.32157 16.3784 4.25173 16.4795 4.20369 16.5914C4.15565 16.7032 4.13036 16.8235 4.12931 16.9452C4.12825 17.0669 4.15144 17.1876 4.19753 17.3003C4.24362 17.4129 4.31169 17.5153 4.39776 17.6013C4.48383 17.6874 4.58617 17.7555 4.69883 17.8016C4.81148 17.8477 4.93219 17.8709 5.0539 17.8698C5.17562 17.8687 5.2959 17.8435 5.40774 17.7954C5.51958 17.7474 5.62073 17.6775 5.70529 17.59L11 12.2962L16.2937 17.59C16.4666 17.757 16.6981 17.8494 16.9385 17.8473C17.1788 17.8452 17.4087 17.7488 17.5787 17.5788C17.7487 17.4089 17.8451 17.1789 17.8472 16.9386C17.8492 16.6983 17.7568 16.4667 17.5899 16.2938L12.2961 11.0001L17.5899 5.70632C17.7568 5.53343 17.8492 5.30188 17.8472 5.06153C17.8451 4.82119 17.7487 4.59128 17.5787 4.42132C17.4087 4.25136 17.1788 4.15496 16.9385 4.15287C16.6981 4.15078 16.4666 4.24317 16.2937 4.41015L11 9.7039L5.7062 4.41015Z" fill="black" fill-opacity="0.2"/>
<path d="M5.7062 4.41015C5.53332 4.24317 5.30177 4.15078 5.06142 4.15287C4.82107 4.15496 4.59116 4.25136 4.4212 4.42132C4.25125 4.59128 4.15484 4.82119 4.15275 5.06153C4.15066 5.30188 4.24306 5.53343 4.41004 5.70632L9.70379 11.0001L4.40912 16.2938C4.32157 16.3784 4.25173 16.4795 4.20369 16.5914C4.15565 16.7032 4.13036 16.8235 4.12931 16.9452C4.12825 17.0669 4.15144 17.1876 4.19753 17.3003C4.24362 17.4129 4.31169 17.5153 4.39776 17.6013C4.48383 17.6874 4.58617 17.7555 4.69883 17.8016C4.81148 17.8477 4.93219 17.8709 5.0539 17.8698C5.17562 17.8687 5.2959 17.8435 5.40774 17.7954C5.51958 17.7474 5.62073 17.6775 5.70529 17.59L11 12.2962L16.2937 17.59C16.4666 17.757 16.6981 17.8494 16.9385 17.8473C17.1788 17.8452 17.4087 17.7488 17.5787 17.5788C17.7487 17.4089 17.8451 17.1789 17.8472 16.9386C17.8492 16.6983 17.7568 16.4667 17.5899 16.2938L12.2961 11.0001L17.5899 5.70632C17.7568 5.53343 17.8492 5.30188 17.8472 5.06153C17.8451 4.82119 17.7487 4.59128 17.5787 4.42132C17.4087 4.25136 17.1788 4.15496 16.9385 4.15287C16.6981 4.15078 16.4666 4.24317 16.2937 4.41015L11 9.7039L5.7062 4.41015Z" fill="black" fill-opacity="0.2"/>
<path d="M5.7062 4.41015C5.53332 4.24317 5.30177 4.15078 5.06142 4.15287C4.82107 4.15496 4.59116 4.25136 4.4212 4.42132C4.25125 4.59128 4.15484 4.82119 4.15275 5.06153C4.15066 5.30188 4.24306 5.53343 4.41004 5.70632L9.70379 11.0001L4.40912 16.2938C4.32157 16.3784 4.25173 16.4795 4.20369 16.5914C4.15565 16.7032 4.13036 16.8235 4.12931 16.9452C4.12825 17.0669 4.15144 17.1876 4.19753 17.3003C4.24362 17.4129 4.31169 17.5153 4.39776 17.6013C4.48383 17.6874 4.58617 17.7555 4.69883 17.8016C4.81148 17.8477 4.93219 17.8709 5.0539 17.8698C5.17562 17.8687 5.2959 17.8435 5.40774 17.7954C5.51958 17.7474 5.62073 17.6775 5.70529 17.59L11 12.2962L16.2937 17.59C16.4666 17.757 16.6981 17.8494 16.9385 17.8473C17.1788 17.8452 17.4087 17.7488 17.5787 17.5788C17.7487 17.4089 17.8451 17.1789 17.8472 16.9386C17.8492 16.6983 17.7568 16.4667 17.5899 16.2938L12.2961 11.0001L17.5899 5.70632C17.7568 5.53343 17.8492 5.30188 17.8472 5.06153C17.8451 4.82119 17.7487 4.59128 17.5787 4.42132C17.4087 4.25136 17.1788 4.15496 16.9385 4.15287C16.6981 4.15078 16.4666 4.24317 16.2937 4.41015L11 9.7039L5.7062 4.41015Z" fill="black" fill-opacity="0.2"/>
</svg>
