<svg width="22" height="22" viewBox="0 0 22 22" fill="none" xmlns="http://www.w3.org/2000/svg">
<path d="M14.2365 17.3885C14.3003 17.4524 14.351 17.5282 14.3856 17.6117C14.4201 17.6951 14.4379 17.7846 14.4379 17.8749C14.4379 17.9652 14.4201 18.0547 14.3856 18.1381C14.351 18.2216 14.3003 18.2974 14.2365 18.3613C14.1726 18.4252 14.0968 18.4758 14.0133 18.5104C13.9298 18.545 13.8404 18.5628 13.7501 18.5628C13.6597 18.5628 13.5703 18.545 13.4868 18.5104C13.4034 18.4758 13.3275 18.4252 13.2636 18.3613L6.38865 11.4863C6.32472 11.4225 6.27402 11.3466 6.23942 11.2632C6.20482 11.1797 6.18701 11.0902 6.18701 10.9999C6.18701 10.9095 6.20482 10.8201 6.23942 10.7366C6.27402 10.6532 6.32472 10.5773 6.38865 10.5135L13.2636 3.63849C13.3926 3.50948 13.5676 3.43701 13.7501 3.43701C13.9325 3.43701 14.1075 3.50948 14.2365 3.63849C14.3655 3.76749 14.4379 3.94246 14.4379 4.12489C14.4379 4.30733 14.3655 4.4823 14.2365 4.6113L7.84701 10.9999L14.2365 17.3885Z" fill="black"/>
<path d="M14.2365 17.3885C14.3003 17.4524 14.351 17.5282 14.3856 17.6117C14.4201 17.6951 14.4379 17.7846 14.4379 17.8749C14.4379 17.9652 14.4201 18.0547 14.3856 18.1381C14.351 18.2216 14.3003 18.2974 14.2365 18.3613C14.1726 18.4252 14.0968 18.4758 14.0133 18.5104C13.9298 18.545 13.8404 18.5628 13.7501 18.5628C13.6597 18.5628 13.5703 18.545 13.4868 18.5104C13.4034 18.4758 13.3275 18.4252 13.2636 18.3613L6.38865 11.4863C6.32472 11.4225 6.27402 11.3466 6.23942 11.2632C6.20482 11.1797 6.18701 11.0902 6.18701 10.9999C6.18701 10.9095 6.20482 10.8201 6.23942 10.7366C6.27402 10.6532 6.32472 10.5773 6.38865 10.5135L13.2636 3.63849C13.3926 3.50948 13.5676 3.43701 13.7501 3.43701C13.9325 3.43701 14.1075 3.50948 14.2365 3.63849C14.3655 3.76749 14.4379 3.94246 14.4379 4.12489C14.4379 4.30733 14.3655 4.4823 14.2365 4.6113L7.84701 10.9999L14.2365 17.3885Z" fill="black" fill-opacity="0.2"/>
<path d="M14.2365 17.3885C14.3003 17.4524 14.351 17.5282 14.3856 17.6117C14.4201 17.6951 14.4379 17.7846 14.4379 17.8749C14.4379 17.9652 14.4201 18.0547 14.3856 18.1381C14.351 18.2216 14.3003 18.2974 14.2365 18.3613C14.1726 18.4252 14.0968 18.4758 14.0133 18.5104C13.9298 18.545 13.8404 18.5628 13.7501 18.5628C13.6597 18.5628 13.5703 18.545 13.4868 18.5104C13.4034 18.4758 13.3275 18.4252 13.2636 18.3613L6.38865 11.4863C6.32472 11.4225 6.27402 11.3466 6.23942 11.2632C6.20482 11.1797 6.18701 11.0902 6.18701 10.9999C6.18701 10.9095 6.20482 10.8201 6.23942 10.7366C6.27402 10.6532 6.32472 10.5773 6.38865 10.5135L13.2636 3.63849C13.3926 3.50948 13.5676 3.43701 13.7501 3.43701C13.9325 3.43701 14.1075 3.50948 14.2365 3.63849C14.3655 3.76749 14.4379 3.94246 14.4379 4.12489C14.4379 4.30733 14.3655 4.4823 14.2365 4.6113L7.84701 10.9999L14.2365 17.3885Z" fill="black" fill-opacity="0.2"/>
<path d="M14.2365 17.3885C14.3003 17.4524 14.351 17.5282 14.3856 17.6117C14.4201 17.6951 14.4379 17.7846 14.4379 17.8749C14.4379 17.9652 14.4201 18.0547 14.3856 18.1381C14.351 18.2216 14.3003 18.2974 14.2365 18.3613C14.1726 18.4252 14.0968 18.4758 14.0133 18.5104C13.9298 18.545 13.8404 18.5628 13.7501 18.5628C13.6597 18.5628 13.5703 18.545 13.4868 18.5104C13.4034 18.4758 13.3275 18.4252 13.2636 18.3613L6.38865 11.4863C6.32472 11.4225 6.27402 11.3466 6.23942 11.2632C6.20482 11.1797 6.18701 11.0902 6.18701 10.9999C6.18701 10.9095 6.20482 10.8201 6.23942 10.7366C6.27402 10.6532 6.32472 10.5773 6.38865 10.5135L13.2636 3.63849C13.3926 3.50948 13.5676 3.43701 13.7501 3.43701C13.9325 3.43701 14.1075 3.50948 14.2365 3.63849C14.3655 3.76749 14.4379 3.94246 14.4379 4.12489C14.4379 4.30733 14.3655 4.4823 14.2365 4.6113L7.84701 10.9999L14.2365 17.3885Z" fill="black" fill-opacity="0.2"/>
<path d="M14.2365 17.3885C14.3003 17.4524 14.351 17.5282 14.3856 17.6117C14.4201 17.6951 14.4379 17.7846 14.4379 17.8749C14.4379 17.9652 14.4201 18.0547 14.3856 18.1381C14.351 18.2216 14.3003 18.2974 14.2365 18.3613C14.1726 18.4252 14.0968 18.4758 14.0133 18.5104C13.9298 18.545 13.8404 18.5628 13.7501 18.5628C13.6597 18.5628 13.5703 18.545 13.4868 18.5104C13.4034 18.4758 13.3275 18.4252 13.2636 18.3613L6.38865 11.4863C6.32472 11.4225 6.27402 11.3466 6.23942 11.2632C6.20482 11.1797 6.18701 11.0902 6.18701 10.9999C6.18701 10.9095 6.20482 10.8201 6.23942 10.7366C6.27402 10.6532 6.32472 10.5773 6.38865 10.5135L13.2636 3.63849C13.3926 3.50948 13.5676 3.43701 13.7501 3.43701C13.9325 3.43701 14.1075 3.50948 14.2365 3.63849C14.3655 3.76749 14.4379 3.94246 14.4379 4.12489C14.4379 4.30733 14.3655 4.4823 14.2365 4.6113L7.84701 10.9999L14.2365 17.3885Z" fill="black" fill-opacity="0.2"/>
</svg>
