<svg width="0" height="0" fill="none" style="visibility: hidden; position: absolute;" aria-hidden="true">
    <symbol id="close" width="22" height="22" viewBox="0 0 22 22" fill="none" xmlns="http://www.w3.org/2000/svg">
        <path d="M5.7062 4.41015C5.53332 4.24317 5.30177 4.15078 5.06142 4.15287C4.82107 4.15496 4.59116 4.25136 4.4212 4.42132C4.25125 4.59128 4.15484 4.82119 4.15275 5.06153C4.15066 5.30188 4.24306 5.53343 4.41004 5.70632L9.70379 11.0001L4.40912 16.2938C4.32157 16.3784 4.25173 16.4795 4.20369 16.5914C4.15565 16.7032 4.13036 16.8235 4.12931 16.9452C4.12825 17.0669 4.15144 17.1876 4.19753 17.3003C4.24362 17.4129 4.31169 17.5153 4.39776 17.6013C4.48383 17.6874 4.58617 17.7555 4.69883 17.8016C4.81148 17.8477 4.93219 17.8709 5.0539 17.8698C5.17562 17.8687 5.2959 17.8435 5.40774 17.7954C5.51958 17.7474 5.62073 17.6775 5.70529 17.59L11 12.2962L16.2937 17.59C16.4666 17.757 16.6981 17.8494 16.9385 17.8473C17.1788 17.8452 17.4087 17.7488 17.5787 17.5788C17.7487 17.4089 17.8451 17.1789 17.8472 16.9386C17.8492 16.6983 17.7568 16.4667 17.5899 16.2938L12.2961 11.0001L17.5899 5.70632C17.7568 5.53343 17.8492 5.30188 17.8472 5.06153C17.8451 4.82119 17.7487 4.59128 17.5787 4.42132C17.4087 4.25136 17.1788 4.15496 16.9385 4.15287C16.6981 4.15078 16.4666 4.24317 16.2937 4.41015L11 9.7039L5.7062 4.41015Z" fill="black"/>
        <path d="M5.7062 4.41015C5.53332 4.24317 5.30177 4.15078 5.06142 4.15287C4.82107 4.15496 4.59116 4.25136 4.4212 4.42132C4.25125 4.59128 4.15484 4.82119 4.15275 5.06153C4.15066 5.30188 4.24306 5.53343 4.41004 5.70632L9.70379 11.0001L4.40912 16.2938C4.32157 16.3784 4.25173 16.4795 4.20369 16.5914C4.15565 16.7032 4.13036 16.8235 4.12931 16.9452C4.12825 17.0669 4.15144 17.1876 4.19753 17.3003C4.24362 17.4129 4.31169 17.5153 4.39776 17.6013C4.48383 17.6874 4.58617 17.7555 4.69883 17.8016C4.81148 17.8477 4.93219 17.8709 5.0539 17.8698C5.17562 17.8687 5.2959 17.8435 5.40774 17.7954C5.51958 17.7474 5.62073 17.6775 5.70529 17.59L11 12.2962L16.2937 17.59C16.4666 17.757 16.6981 17.8494 16.9385 17.8473C17.1788 17.8452 17.4087 17.7488 17.5787 17.5788C17.7487 17.4089 17.8451 17.1789 17.8472 16.9386C17.8492 16.6983 17.7568 16.4667 17.5899 16.2938L12.2961 11.0001L17.5899 5.70632C17.7568 5.53343 17.8492 5.30188 17.8472 5.06153C17.8451 4.82119 17.7487 4.59128 17.5787 4.42132C17.4087 4.25136 17.1788 4.15496 16.9385 4.15287C16.6981 4.15078 16.4666 4.24317 16.2937 4.41015L11 9.7039L5.7062 4.41015Z" fill="black" fill-opacity="0.2"/>
        <path d="M5.7062 4.41015C5.53332 4.24317 5.30177 4.15078 5.06142 4.15287C4.82107 4.15496 4.59116 4.25136 4.4212 4.42132C4.25125 4.59128 4.15484 4.82119 4.15275 5.06153C4.15066 5.30188 4.24306 5.53343 4.41004 5.70632L9.70379 11.0001L4.40912 16.2938C4.32157 16.3784 4.25173 16.4795 4.20369 16.5914C4.15565 16.7032 4.13036 16.8235 4.12931 16.9452C4.12825 17.0669 4.15144 17.1876 4.19753 17.3003C4.24362 17.4129 4.31169 17.5153 4.39776 17.6013C4.48383 17.6874 4.58617 17.7555 4.69883 17.8016C4.81148 17.8477 4.93219 17.8709 5.0539 17.8698C5.17562 17.8687 5.2959 17.8435 5.40774 17.7954C5.51958 17.7474 5.62073 17.6775 5.70529 17.59L11 12.2962L16.2937 17.59C16.4666 17.757 16.6981 17.8494 16.9385 17.8473C17.1788 17.8452 17.4087 17.7488 17.5787 17.5788C17.7487 17.4089 17.8451 17.1789 17.8472 16.9386C17.8492 16.6983 17.7568 16.4667 17.5899 16.2938L12.2961 11.0001L17.5899 5.70632C17.7568 5.53343 17.8492 5.30188 17.8472 5.06153C17.8451 4.82119 17.7487 4.59128 17.5787 4.42132C17.4087 4.25136 17.1788 4.15496 16.9385 4.15287C16.6981 4.15078 16.4666 4.24317 16.2937 4.41015L11 9.7039L5.7062 4.41015Z" fill="black" fill-opacity="0.2"/>
        <path d="M5.7062 4.41015C5.53332 4.24317 5.30177 4.15078 5.06142 4.15287C4.82107 4.15496 4.59116 4.25136 4.4212 4.42132C4.25125 4.59128 4.15484 4.82119 4.15275 5.06153C4.15066 5.30188 4.24306 5.53343 4.41004 5.70632L9.70379 11.0001L4.40912 16.2938C4.32157 16.3784 4.25173 16.4795 4.20369 16.5914C4.15565 16.7032 4.13036 16.8235 4.12931 16.9452C4.12825 17.0669 4.15144 17.1876 4.19753 17.3003C4.24362 17.4129 4.31169 17.5153 4.39776 17.6013C4.48383 17.6874 4.58617 17.7555 4.69883 17.8016C4.81148 17.8477 4.93219 17.8709 5.0539 17.8698C5.17562 17.8687 5.2959 17.8435 5.40774 17.7954C5.51958 17.7474 5.62073 17.6775 5.70529 17.59L11 12.2962L16.2937 17.59C16.4666 17.757 16.6981 17.8494 16.9385 17.8473C17.1788 17.8452 17.4087 17.7488 17.5787 17.5788C17.7487 17.4089 17.8451 17.1789 17.8472 16.9386C17.8492 16.6983 17.7568 16.4667 17.5899 16.2938L12.2961 11.0001L17.5899 5.70632C17.7568 5.53343 17.8492 5.30188 17.8472 5.06153C17.8451 4.82119 17.7487 4.59128 17.5787 4.42132C17.4087 4.25136 17.1788 4.15496 16.9385 4.15287C16.6981 4.15078 16.4666 4.24317 16.2937 4.41015L11 9.7039L5.7062 4.41015Z" fill="black" fill-opacity="0.2"/>
        <path d="M5.7062 4.41015C5.53332 4.24317 5.30177 4.15078 5.06142 4.15287C4.82107 4.15496 4.59116 4.25136 4.4212 4.42132C4.25125 4.59128 4.15484 4.82119 4.15275 5.06153C4.15066 5.30188 4.24306 5.53343 4.41004 5.70632L9.70379 11.0001L4.40912 16.2938C4.32157 16.3784 4.25173 16.4795 4.20369 16.5914C4.15565 16.7032 4.13036 16.8235 4.12931 16.9452C4.12825 17.0669 4.15144 17.1876 4.19753 17.3003C4.24362 17.4129 4.31169 17.5153 4.39776 17.6013C4.48383 17.6874 4.58617 17.7555 4.69883 17.8016C4.81148 17.8477 4.93219 17.8709 5.0539 17.8698C5.17562 17.8687 5.2959 17.8435 5.40774 17.7954C5.51958 17.7474 5.62073 17.6775 5.70529 17.59L11 12.2962L16.2937 17.59C16.4666 17.757 16.6981 17.8494 16.9385 17.8473C17.1788 17.8452 17.4087 17.7488 17.5787 17.5788C17.7487 17.4089 17.8451 17.1789 17.8472 16.9386C17.8492 16.6983 17.7568 16.4667 17.5899 16.2938L12.2961 11.0001L17.5899 5.70632C17.7568 5.53343 17.8492 5.30188 17.8472 5.06153C17.8451 4.82119 17.7487 4.59128 17.5787 4.42132C17.4087 4.25136 17.1788 4.15496 16.9385 4.15287C16.6981 4.15078 16.4666 4.24317 16.2937 4.41015L11 9.7039L5.7062 4.41015Z" fill="black" fill-opacity="0.2"/>
    </symbol>
    <symbol id="direction" width="22" height="22" viewBox="0 0 22 22" fill="none" xmlns="http://www.w3.org/2000/svg">
        <path d="M14.2365 17.3885C14.3003 17.4524 14.351 17.5282 14.3856 17.6117C14.4201 17.6951 14.4379 17.7846 14.4379 17.8749C14.4379 17.9652 14.4201 18.0547 14.3856 18.1381C14.351 18.2216 14.3003 18.2974 14.2365 18.3613C14.1726 18.4252 14.0968 18.4758 14.0133 18.5104C13.9298 18.545 13.8404 18.5628 13.7501 18.5628C13.6597 18.5628 13.5703 18.545 13.4868 18.5104C13.4034 18.4758 13.3275 18.4252 13.2636 18.3613L6.38865 11.4863C6.32472 11.4225 6.27402 11.3466 6.23942 11.2632C6.20482 11.1797 6.18701 11.0902 6.18701 10.9999C6.18701 10.9095 6.20482 10.8201 6.23942 10.7366C6.27402 10.6532 6.32472 10.5773 6.38865 10.5135L13.2636 3.63849C13.3926 3.50948 13.5676 3.43701 13.7501 3.43701C13.9325 3.43701 14.1075 3.50948 14.2365 3.63849C14.3655 3.76749 14.4379 3.94246 14.4379 4.12489C14.4379 4.30733 14.3655 4.4823 14.2365 4.6113L7.84701 10.9999L14.2365 17.3885Z" fill="black"/>
        <path d="M14.2365 17.3885C14.3003 17.4524 14.351 17.5282 14.3856 17.6117C14.4201 17.6951 14.4379 17.7846 14.4379 17.8749C14.4379 17.9652 14.4201 18.0547 14.3856 18.1381C14.351 18.2216 14.3003 18.2974 14.2365 18.3613C14.1726 18.4252 14.0968 18.4758 14.0133 18.5104C13.9298 18.545 13.8404 18.5628 13.7501 18.5628C13.6597 18.5628 13.5703 18.545 13.4868 18.5104C13.4034 18.4758 13.3275 18.4252 13.2636 18.3613L6.38865 11.4863C6.32472 11.4225 6.27402 11.3466 6.23942 11.2632C6.20482 11.1797 6.18701 11.0902 6.18701 10.9999C6.18701 10.9095 6.20482 10.8201 6.23942 10.7366C6.27402 10.6532 6.32472 10.5773 6.38865 10.5135L13.2636 3.63849C13.3926 3.50948 13.5676 3.43701 13.7501 3.43701C13.9325 3.43701 14.1075 3.50948 14.2365 3.63849C14.3655 3.76749 14.4379 3.94246 14.4379 4.12489C14.4379 4.30733 14.3655 4.4823 14.2365 4.6113L7.84701 10.9999L14.2365 17.3885Z" fill="black" fill-opacity="0.2"/>
        <path d="M14.2365 17.3885C14.3003 17.4524 14.351 17.5282 14.3856 17.6117C14.4201 17.6951 14.4379 17.7846 14.4379 17.8749C14.4379 17.9652 14.4201 18.0547 14.3856 18.1381C14.351 18.2216 14.3003 18.2974 14.2365 18.3613C14.1726 18.4252 14.0968 18.4758 14.0133 18.5104C13.9298 18.545 13.8404 18.5628 13.7501 18.5628C13.6597 18.5628 13.5703 18.545 13.4868 18.5104C13.4034 18.4758 13.3275 18.4252 13.2636 18.3613L6.38865 11.4863C6.32472 11.4225 6.27402 11.3466 6.23942 11.2632C6.20482 11.1797 6.18701 11.0902 6.18701 10.9999C6.18701 10.9095 6.20482 10.8201 6.23942 10.7366C6.27402 10.6532 6.32472 10.5773 6.38865 10.5135L13.2636 3.63849C13.3926 3.50948 13.5676 3.43701 13.7501 3.43701C13.9325 3.43701 14.1075 3.50948 14.2365 3.63849C14.3655 3.76749 14.4379 3.94246 14.4379 4.12489C14.4379 4.30733 14.3655 4.4823 14.2365 4.6113L7.84701 10.9999L14.2365 17.3885Z" fill="black" fill-opacity="0.2"/>
        <path d="M14.2365 17.3885C14.3003 17.4524 14.351 17.5282 14.3856 17.6117C14.4201 17.6951 14.4379 17.7846 14.4379 17.8749C14.4379 17.9652 14.4201 18.0547 14.3856 18.1381C14.351 18.2216 14.3003 18.2974 14.2365 18.3613C14.1726 18.4252 14.0968 18.4758 14.0133 18.5104C13.9298 18.545 13.8404 18.5628 13.7501 18.5628C13.6597 18.5628 13.5703 18.545 13.4868 18.5104C13.4034 18.4758 13.3275 18.4252 13.2636 18.3613L6.38865 11.4863C6.32472 11.4225 6.27402 11.3466 6.23942 11.2632C6.20482 11.1797 6.18701 11.0902 6.18701 10.9999C6.18701 10.9095 6.20482 10.8201 6.23942 10.7366C6.27402 10.6532 6.32472 10.5773 6.38865 10.5135L13.2636 3.63849C13.3926 3.50948 13.5676 3.43701 13.7501 3.43701C13.9325 3.43701 14.1075 3.50948 14.2365 3.63849C14.3655 3.76749 14.4379 3.94246 14.4379 4.12489C14.4379 4.30733 14.3655 4.4823 14.2365 4.6113L7.84701 10.9999L14.2365 17.3885Z" fill="black" fill-opacity="0.2"/>
        <path d="M14.2365 17.3885C14.3003 17.4524 14.351 17.5282 14.3856 17.6117C14.4201 17.6951 14.4379 17.7846 14.4379 17.8749C14.4379 17.9652 14.4201 18.0547 14.3856 18.1381C14.351 18.2216 14.3003 18.2974 14.2365 18.3613C14.1726 18.4252 14.0968 18.4758 14.0133 18.5104C13.9298 18.545 13.8404 18.5628 13.7501 18.5628C13.6597 18.5628 13.5703 18.545 13.4868 18.5104C13.4034 18.4758 13.3275 18.4252 13.2636 18.3613L6.38865 11.4863C6.32472 11.4225 6.27402 11.3466 6.23942 11.2632C6.20482 11.1797 6.18701 11.0902 6.18701 10.9999C6.18701 10.9095 6.20482 10.8201 6.23942 10.7366C6.27402 10.6532 6.32472 10.5773 6.38865 10.5135L13.2636 3.63849C13.3926 3.50948 13.5676 3.43701 13.7501 3.43701C13.9325 3.43701 14.1075 3.50948 14.2365 3.63849C14.3655 3.76749 14.4379 3.94246 14.4379 4.12489C14.4379 4.30733 14.3655 4.4823 14.2365 4.6113L7.84701 10.9999L14.2365 17.3885Z" fill="black" fill-opacity="0.2"/>
    </symbol>
    <symbol id="setting" width="22" height="22" viewBox="0 0 22 22" fill="none" xmlns="http://www.w3.org/2000/svg">
        <path d="M12.9057 1.375C13.0513 1.375 13.1931 1.42121 13.3107 1.50695C13.4283 1.59269 13.5157 1.71355 13.5602 1.85213L14.3165 4.202C14.6341 4.35737 14.938 4.532 15.2281 4.72862L17.6426 4.20888C17.785 4.17848 17.9333 4.19406 18.0662 4.25336C18.1992 4.31267 18.3099 4.41264 18.3823 4.53888L20.2881 7.8375C20.3609 7.96366 20.3917 8.10968 20.3761 8.2545C20.3606 8.39931 20.2994 8.53544 20.2015 8.64325L18.5446 10.472C18.5687 10.8227 18.5687 11.1746 18.5446 11.5252L20.2015 13.3567C20.2994 13.4646 20.3606 13.6007 20.3761 13.7455C20.3917 13.8903 20.3609 14.0363 20.2881 14.1625L18.3823 17.4625C18.3097 17.5885 18.1989 17.6882 18.066 17.7472C17.933 17.8063 17.7848 17.8216 17.6426 17.7911L15.2281 17.2714C14.9393 17.4666 14.6341 17.6426 14.3178 17.798L13.5602 20.1479C13.5157 20.2864 13.4283 20.4073 13.3107 20.4931C13.1931 20.5788 13.0513 20.625 12.9057 20.625H9.09422C8.94866 20.625 8.80686 20.5788 8.68924 20.4931C8.57163 20.4073 8.48426 20.2864 8.43972 20.1479L7.68484 17.7994C7.36807 17.6445 7.06253 17.4676 6.77047 17.27L4.35734 17.7911C4.21498 17.8215 4.06665 17.8059 3.93371 17.7466C3.80076 17.6873 3.69008 17.5874 3.61759 17.4611L1.71184 14.1625C1.63907 14.0363 1.60824 13.8903 1.62381 13.7455C1.63938 13.6007 1.70054 13.4646 1.79847 13.3567L3.45534 11.5252C3.43134 11.1755 3.43134 10.8245 3.45534 10.4748L1.79847 8.64325C1.70054 8.53544 1.63938 8.39931 1.62381 8.2545C1.60824 8.10968 1.63907 7.96366 1.71184 7.8375L3.61759 4.5375C3.69028 4.41151 3.80105 4.31183 3.93397 4.25278C4.0669 4.19373 4.21513 4.17836 4.35734 4.20888L6.77047 4.73C7.06197 4.53338 7.36722 4.356 7.68484 4.20063L8.44109 1.85213C8.48549 1.714 8.57244 1.59346 8.68951 1.50776C8.80658 1.42205 8.94776 1.37559 9.09284 1.375H12.9043H12.9057ZM12.4025 2.75H9.59747L8.81647 5.17962L8.28984 5.43675C8.03095 5.56344 7.78104 5.70769 7.54184 5.8685L7.05509 6.1985L4.55809 5.6595L3.15559 8.0905L4.86747 9.98525L4.82622 10.5682C4.80646 10.8557 4.80646 11.1443 4.82622 11.4318L4.86747 12.0147L3.15284 13.9095L4.55672 16.3405L7.05372 15.8029L7.54047 16.1315C7.77966 16.2923 8.02958 16.4366 8.28847 16.5632L8.81509 16.8204L9.59747 19.25H12.4052L13.189 16.819L13.7142 16.5632C13.9728 16.4369 14.2223 16.2926 14.4608 16.1315L14.9462 15.8029L17.4446 16.3405L18.8471 13.9095L17.1338 12.0147L17.1751 11.4318C17.1949 11.1438 17.1949 10.8548 17.1751 10.5669L17.1338 9.98388L18.8485 8.0905L17.4446 5.6595L14.9462 6.19575L14.4608 5.8685C14.2223 5.70737 13.9728 5.5631 13.7142 5.43675L13.189 5.181L12.4038 2.75H12.4025ZM11 6.875C12.094 6.875 13.1432 7.3096 13.9168 8.08318C14.6904 8.85677 15.125 9.90598 15.125 11C15.125 12.094 14.6904 13.1432 13.9168 13.9168C13.1432 14.6904 12.094 15.125 11 15.125C9.90595 15.125 8.85674 14.6904 8.08315 13.9168C7.30956 13.1432 6.87497 12.094 6.87497 11C6.87497 9.90598 7.30956 8.85677 8.08315 8.08318C8.85674 7.3096 9.90595 6.875 11 6.875ZM11 8.25C10.2706 8.25 9.57115 8.53973 9.05542 9.05546C8.5397 9.57118 8.24997 10.2707 8.24997 11C8.24997 11.7293 8.5397 12.4288 9.05542 12.9445C9.57115 13.4603 10.2706 13.75 11 13.75C11.7293 13.75 12.4288 13.4603 12.9445 12.9445C13.4602 12.4288 13.75 11.7293 13.75 11C13.75 10.2707 13.4602 9.57118 12.9445 9.05546C12.4288 8.53973 11.7293 8.25 11 8.25Z" fill="black"/>
    </symbol>
    <symbol id="share" width="22" height="22" viewBox="0 0 22 22" fill="none" xmlns="http://www.w3.org/2000/svg">
        <path d="M18.3787 17.1876V17.1874V10.785L18.3744 10.7231C18.3636 10.6625 18.3324 10.6073 18.2858 10.5666C18.2365 10.5236 18.1733 10.4999 18.1078 10.4999L18.3787 17.1876ZM18.3787 17.1876C18.3789 17.8422 18.1286 18.4722 17.679 18.9481C17.2308 19.4226 16.6185 19.7081 15.9671 19.7466L15.8105 19.7508H5.73283C5.07827 19.7509 4.44853 19.5005 3.97277 19.0509C3.49845 18.6028 3.21302 17.9906 3.17459 17.3393L3.17033 17.1827L3.17033 10.7709C3.17033 10.7709 3.17033 10.7708 3.17033 10.7708C3.17033 10.7708 3.17033 10.7708 3.17033 10.7708C3.17038 10.7022 3.19645 10.6362 3.24326 10.5861C3.29011 10.5359 3.35424 10.5054 3.4227 10.5008C3.49116 10.4961 3.55885 10.5176 3.61208 10.5609C3.66246 10.6019 3.69635 10.6595 3.70775 10.7232L3.712 10.785L3.712 17.1872C3.712 17.1872 3.712 17.1873 3.712 17.1873C3.712 17.1873 3.712 17.1874 3.712 17.1874C3.71178 17.6947 3.90236 18.1835 4.24589 18.5568C4.58947 18.9301 5.0609 19.1605 5.56654 19.2023L5.575 19.203M18.3787 17.1876L5.575 19.203M5.575 19.203L5.58349 19.2033M5.575 19.203L5.58349 19.2033M5.58349 19.2033L5.71549 19.2088L5.72415 19.2092M5.58349 19.2033L5.72415 19.2092M5.72415 19.2092H5.73283M5.72415 19.2092H5.73283M5.73283 19.2092H15.8162H15.8162M5.73283 19.2092H15.8162M15.8162 19.2092C16.3235 19.2091 16.8123 19.0183 17.1854 18.6745C17.5585 18.3307 17.7886 17.8591 17.8301 17.3535L17.8308 17.3452M15.8162 19.2092L17.8308 17.3452M17.8308 17.3452L17.8311 17.3369M17.8308 17.3452L17.8311 17.3369M17.8311 17.3369L17.8366 17.2058L17.837 17.1971M17.8311 17.3369L17.837 17.1971M17.837 17.1971V17.1883M17.837 17.1971V17.1883M17.837 17.1883V10.7708M17.837 17.1883V10.7708M17.837 10.7708C17.837 10.6989 17.8655 10.63 17.9163 10.5792M17.837 10.7708L17.9163 10.5792M17.9163 10.5792C17.9671 10.5285 18.036 10.4999 18.1078 10.4999L17.9163 10.5792ZM10.9732 15.0783C10.9327 15.1248 10.8777 15.156 10.8172 15.1669L10.7589 15.1709C10.6974 15.1684 10.6385 15.145 10.5919 15.1044C10.5454 15.0638 10.5142 15.0086 10.5033 14.948L10.4991 14.886L10.4982 4.17805L10.4981 3.17206L9.78683 3.8835L6.37866 7.29258L6.37843 7.29281C6.33255 7.33877 6.27169 7.36672 6.20693 7.37156C6.14636 7.37608 6.08616 7.36012 6.03592 7.32643L5.98762 7.28445C5.94636 7.23959 5.92136 7.18202 5.91686 7.12102C5.91237 7.06004 5.92865 6.99945 5.96286 6.94903L6.00668 6.89791L10.5759 2.32957L10.576 2.32951C10.6218 2.28364 10.6826 2.25576 10.7473 2.25092C10.8081 2.24637 10.8686 2.26248 10.9189 2.29643L10.9698 2.34006L15.5465 6.90945L15.5473 6.91018C15.5958 6.95844 15.6243 7.02332 15.627 7.09175C15.6297 7.16018 15.6063 7.22708 15.5617 7.27899C15.517 7.33089 15.4543 7.36395 15.3862 7.3715C15.3222 7.3786 15.258 7.36266 15.2048 7.32677L15.1534 7.28211L11.7508 3.88593L11.0398 3.17625V4.18083V14.9003V14.9004C11.0398 14.9658 11.0162 15.029 10.9732 15.0783Z" fill="black"/>
        <path d="M18.3787 17.1876V17.1874V10.785L18.3744 10.7231C18.3636 10.6625 18.3324 10.6073 18.2858 10.5666C18.2365 10.5236 18.1733 10.4999 18.1078 10.4999L18.3787 17.1876ZM18.3787 17.1876C18.3789 17.8422 18.1286 18.4722 17.679 18.9481C17.2308 19.4226 16.6185 19.7081 15.9671 19.7466L15.8105 19.7508H5.73283C5.07827 19.7509 4.44853 19.5005 3.97277 19.0509C3.49845 18.6028 3.21302 17.9906 3.17459 17.3393L3.17033 17.1827L3.17033 10.7709C3.17033 10.7709 3.17033 10.7708 3.17033 10.7708C3.17033 10.7708 3.17033 10.7708 3.17033 10.7708C3.17038 10.7022 3.19645 10.6362 3.24326 10.5861C3.29011 10.5359 3.35424 10.5054 3.4227 10.5008C3.49116 10.4961 3.55885 10.5176 3.61208 10.5609C3.66246 10.6019 3.69635 10.6595 3.70775 10.7232L3.712 10.785L3.712 17.1872C3.712 17.1872 3.712 17.1873 3.712 17.1873C3.712 17.1873 3.712 17.1874 3.712 17.1874C3.71178 17.6947 3.90236 18.1835 4.24589 18.5568C4.58947 18.9301 5.0609 19.1605 5.56654 19.2023L5.575 19.203M18.3787 17.1876L5.575 19.203M5.575 19.203L5.58349 19.2033M5.575 19.203L5.58349 19.2033M5.58349 19.2033L5.71549 19.2088L5.72415 19.2092M5.58349 19.2033L5.72415 19.2092M5.72415 19.2092H5.73283M5.72415 19.2092H5.73283M5.73283 19.2092H15.8162H15.8162M5.73283 19.2092H15.8162M15.8162 19.2092C16.3235 19.2091 16.8123 19.0183 17.1854 18.6745C17.5585 18.3307 17.7886 17.8591 17.8301 17.3535L17.8308 17.3452M15.8162 19.2092L17.8308 17.3452M17.8308 17.3452L17.8311 17.3369M17.8308 17.3452L17.8311 17.3369M17.8311 17.3369L17.8366 17.2058L17.837 17.1971M17.8311 17.3369L17.837 17.1971M17.837 17.1971V17.1883M17.837 17.1971V17.1883M17.837 17.1883V10.7708M17.837 17.1883V10.7708M17.837 10.7708C17.837 10.6989 17.8655 10.63 17.9163 10.5792M17.837 10.7708L17.9163 10.5792M17.9163 10.5792C17.9671 10.5285 18.036 10.4999 18.1078 10.4999L17.9163 10.5792ZM10.9732 15.0783C10.9327 15.1248 10.8777 15.156 10.8172 15.1669L10.7589 15.1709C10.6974 15.1684 10.6385 15.145 10.5919 15.1044C10.5454 15.0638 10.5142 15.0086 10.5033 14.948L10.4991 14.886L10.4982 4.17805L10.4981 3.17206L9.78683 3.8835L6.37866 7.29258L6.37843 7.29281C6.33255 7.33877 6.27169 7.36672 6.20693 7.37156C6.14636 7.37608 6.08616 7.36012 6.03592 7.32643L5.98762 7.28445C5.94636 7.23959 5.92136 7.18202 5.91686 7.12102C5.91237 7.06004 5.92865 6.99945 5.96286 6.94903L6.00668 6.89791L10.5759 2.32957L10.576 2.32951C10.6218 2.28364 10.6826 2.25576 10.7473 2.25092C10.8081 2.24637 10.8686 2.26248 10.9189 2.29643L10.9698 2.34006L15.5465 6.90945L15.5473 6.91018C15.5958 6.95844 15.6243 7.02332 15.627 7.09175C15.6297 7.16018 15.6063 7.22708 15.5617 7.27899C15.517 7.33089 15.4543 7.36395 15.3862 7.3715C15.3222 7.3786 15.258 7.36266 15.2048 7.32677L15.1534 7.28211L11.7508 3.88593L11.0398 3.17625V4.18083V14.9003V14.9004C11.0398 14.9658 11.0162 15.029 10.9732 15.0783Z" stroke="black" stroke-width="0.833333"/>
        <path d="M18.3787 17.1876V17.1874V10.785L18.3744 10.7231C18.3636 10.6625 18.3324 10.6073 18.2858 10.5666C18.2365 10.5236 18.1733 10.4999 18.1078 10.4999L18.3787 17.1876ZM18.3787 17.1876C18.3789 17.8422 18.1286 18.4722 17.679 18.9481C17.2308 19.4226 16.6185 19.7081 15.9671 19.7466L15.8105 19.7508H5.73283C5.07827 19.7509 4.44853 19.5005 3.97277 19.0509C3.49845 18.6028 3.21302 17.9906 3.17459 17.3393L3.17033 17.1827L3.17033 10.7709C3.17033 10.7709 3.17033 10.7708 3.17033 10.7708C3.17033 10.7708 3.17033 10.7708 3.17033 10.7708C3.17038 10.7022 3.19645 10.6362 3.24326 10.5861C3.29011 10.5359 3.35424 10.5054 3.4227 10.5008C3.49116 10.4961 3.55885 10.5176 3.61208 10.5609C3.66246 10.6019 3.69635 10.6595 3.70775 10.7232L3.712 10.785L3.712 17.1872C3.712 17.1872 3.712 17.1873 3.712 17.1873C3.712 17.1873 3.712 17.1874 3.712 17.1874C3.71178 17.6947 3.90236 18.1835 4.24589 18.5568C4.58947 18.9301 5.0609 19.1605 5.56654 19.2023L5.575 19.203M18.3787 17.1876L5.575 19.203M5.575 19.203L5.58349 19.2033M5.575 19.203L5.58349 19.2033M5.58349 19.2033L5.71549 19.2088L5.72415 19.2092M5.58349 19.2033L5.72415 19.2092M5.72415 19.2092H5.73283M5.72415 19.2092H5.73283M5.73283 19.2092H15.8162H15.8162M5.73283 19.2092H15.8162M15.8162 19.2092C16.3235 19.2091 16.8123 19.0183 17.1854 18.6745C17.5585 18.3307 17.7886 17.8591 17.8301 17.3535L17.8308 17.3452M15.8162 19.2092L17.8308 17.3452M17.8308 17.3452L17.8311 17.3369M17.8308 17.3452L17.8311 17.3369M17.8311 17.3369L17.8366 17.2058L17.837 17.1971M17.8311 17.3369L17.837 17.1971M17.837 17.1971V17.1883M17.837 17.1971V17.1883M17.837 17.1883V10.7708M17.837 17.1883V10.7708M17.837 10.7708C17.837 10.6989 17.8655 10.63 17.9163 10.5792M17.837 10.7708L17.9163 10.5792M17.9163 10.5792C17.9671 10.5285 18.036 10.4999 18.1078 10.4999L17.9163 10.5792ZM10.9732 15.0783C10.9327 15.1248 10.8777 15.156 10.8172 15.1669L10.7589 15.1709C10.6974 15.1684 10.6385 15.145 10.5919 15.1044C10.5454 15.0638 10.5142 15.0086 10.5033 14.948L10.4991 14.886L10.4982 4.17805L10.4981 3.17206L9.78683 3.8835L6.37866 7.29258L6.37843 7.29281C6.33255 7.33877 6.27169 7.36672 6.20693 7.37156C6.14636 7.37608 6.08616 7.36012 6.03592 7.32643L5.98762 7.28445C5.94636 7.23959 5.92136 7.18202 5.91686 7.12102C5.91237 7.06004 5.92865 6.99945 5.96286 6.94903L6.00668 6.89791L10.5759 2.32957L10.576 2.32951C10.6218 2.28364 10.6826 2.25576 10.7473 2.25092C10.8081 2.24637 10.8686 2.26248 10.9189 2.29643L10.9698 2.34006L15.5465 6.90945L15.5473 6.91018C15.5958 6.95844 15.6243 7.02332 15.627 7.09175C15.6297 7.16018 15.6063 7.22708 15.5617 7.27899C15.517 7.33089 15.4543 7.36395 15.3862 7.3715C15.3222 7.3786 15.258 7.36266 15.2048 7.32677L15.1534 7.28211L11.7508 3.88593L11.0398 3.17625V4.18083V14.9003V14.9004C11.0398 14.9658 11.0162 15.029 10.9732 15.0783Z" stroke="black" stroke-opacity="0.2" stroke-width="0.833333"/>
        <path d="M18.3787 17.1876V17.1874V10.785L18.3744 10.7231C18.3636 10.6625 18.3324 10.6073 18.2858 10.5666C18.2365 10.5236 18.1733 10.4999 18.1078 10.4999L18.3787 17.1876ZM18.3787 17.1876C18.3789 17.8422 18.1286 18.4722 17.679 18.9481C17.2308 19.4226 16.6185 19.7081 15.9671 19.7466L15.8105 19.7508H5.73283C5.07827 19.7509 4.44853 19.5005 3.97277 19.0509C3.49845 18.6028 3.21302 17.9906 3.17459 17.3393L3.17033 17.1827L3.17033 10.7709C3.17033 10.7709 3.17033 10.7708 3.17033 10.7708C3.17033 10.7708 3.17033 10.7708 3.17033 10.7708C3.17038 10.7022 3.19645 10.6362 3.24326 10.5861C3.29011 10.5359 3.35424 10.5054 3.4227 10.5008C3.49116 10.4961 3.55885 10.5176 3.61208 10.5609C3.66246 10.6019 3.69635 10.6595 3.70775 10.7232L3.712 10.785L3.712 17.1872C3.712 17.1872 3.712 17.1873 3.712 17.1873C3.712 17.1873 3.712 17.1874 3.712 17.1874C3.71178 17.6947 3.90236 18.1835 4.24589 18.5568C4.58947 18.9301 5.0609 19.1605 5.56654 19.2023L5.575 19.203M18.3787 17.1876L5.575 19.203M5.575 19.203L5.58349 19.2033M5.575 19.203L5.58349 19.2033M5.58349 19.2033L5.71549 19.2088L5.72415 19.2092M5.58349 19.2033L5.72415 19.2092M5.72415 19.2092H5.73283M5.72415 19.2092H5.73283M5.73283 19.2092H15.8162H15.8162M5.73283 19.2092H15.8162M15.8162 19.2092C16.3235 19.2091 16.8123 19.0183 17.1854 18.6745C17.5585 18.3307 17.7886 17.8591 17.8301 17.3535L17.8308 17.3452M15.8162 19.2092L17.8308 17.3452M17.8308 17.3452L17.8311 17.3369M17.8308 17.3452L17.8311 17.3369M17.8311 17.3369L17.8366 17.2058L17.837 17.1971M17.8311 17.3369L17.837 17.1971M17.837 17.1971V17.1883M17.837 17.1971V17.1883M17.837 17.1883V10.7708M17.837 17.1883V10.7708M17.837 10.7708C17.837 10.6989 17.8655 10.63 17.9163 10.5792M17.837 10.7708L17.9163 10.5792M17.9163 10.5792C17.9671 10.5285 18.036 10.4999 18.1078 10.4999L17.9163 10.5792ZM10.9732 15.0783C10.9327 15.1248 10.8777 15.156 10.8172 15.1669L10.7589 15.1709C10.6974 15.1684 10.6385 15.145 10.5919 15.1044C10.5454 15.0638 10.5142 15.0086 10.5033 14.948L10.4991 14.886L10.4982 4.17805L10.4981 3.17206L9.78683 3.8835L6.37866 7.29258L6.37843 7.29281C6.33255 7.33877 6.27169 7.36672 6.20693 7.37156C6.14636 7.37608 6.08616 7.36012 6.03592 7.32643L5.98762 7.28445C5.94636 7.23959 5.92136 7.18202 5.91686 7.12102C5.91237 7.06004 5.92865 6.99945 5.96286 6.94903L6.00668 6.89791L10.5759 2.32957L10.576 2.32951C10.6218 2.28364 10.6826 2.25576 10.7473 2.25092C10.8081 2.24637 10.8686 2.26248 10.9189 2.29643L10.9698 2.34006L15.5465 6.90945L15.5473 6.91018C15.5958 6.95844 15.6243 7.02332 15.627 7.09175C15.6297 7.16018 15.6063 7.22708 15.5617 7.27899C15.517 7.33089 15.4543 7.36395 15.3862 7.3715C15.3222 7.3786 15.258 7.36266 15.2048 7.32677L15.1534 7.28211L11.7508 3.88593L11.0398 3.17625V4.18083V14.9003V14.9004C11.0398 14.9658 11.0162 15.029 10.9732 15.0783Z" stroke="black" stroke-opacity="0.2" stroke-width="0.833333"/>
        <path d="M18.3787 17.1876V17.1874V10.785L18.3744 10.7231C18.3636 10.6625 18.3324 10.6073 18.2858 10.5666C18.2365 10.5236 18.1733 10.4999 18.1078 10.4999L18.3787 17.1876ZM18.3787 17.1876C18.3789 17.8422 18.1286 18.4722 17.679 18.9481C17.2308 19.4226 16.6185 19.7081 15.9671 19.7466L15.8105 19.7508H5.73283C5.07827 19.7509 4.44853 19.5005 3.97277 19.0509C3.49845 18.6028 3.21302 17.9906 3.17459 17.3393L3.17033 17.1827L3.17033 10.7709C3.17033 10.7709 3.17033 10.7708 3.17033 10.7708C3.17033 10.7708 3.17033 10.7708 3.17033 10.7708C3.17038 10.7022 3.19645 10.6362 3.24326 10.5861C3.29011 10.5359 3.35424 10.5054 3.4227 10.5008C3.49116 10.4961 3.55885 10.5176 3.61208 10.5609C3.66246 10.6019 3.69635 10.6595 3.70775 10.7232L3.712 10.785L3.712 17.1872C3.712 17.1872 3.712 17.1873 3.712 17.1873C3.712 17.1873 3.712 17.1874 3.712 17.1874C3.71178 17.6947 3.90236 18.1835 4.24589 18.5568C4.58947 18.9301 5.0609 19.1605 5.56654 19.2023L5.575 19.203M18.3787 17.1876L5.575 19.203M5.575 19.203L5.58349 19.2033M5.575 19.203L5.58349 19.2033M5.58349 19.2033L5.71549 19.2088L5.72415 19.2092M5.58349 19.2033L5.72415 19.2092M5.72415 19.2092H5.73283M5.72415 19.2092H5.73283M5.73283 19.2092H15.8162H15.8162M5.73283 19.2092H15.8162M15.8162 19.2092C16.3235 19.2091 16.8123 19.0183 17.1854 18.6745C17.5585 18.3307 17.7886 17.8591 17.8301 17.3535L17.8308 17.3452M15.8162 19.2092L17.8308 17.3452M17.8308 17.3452L17.8311 17.3369M17.8308 17.3452L17.8311 17.3369M17.8311 17.3369L17.8366 17.2058L17.837 17.1971M17.8311 17.3369L17.837 17.1971M17.837 17.1971V17.1883M17.837 17.1971V17.1883M17.837 17.1883V10.7708M17.837 17.1883V10.7708M17.837 10.7708C17.837 10.6989 17.8655 10.63 17.9163 10.5792M17.837 10.7708L17.9163 10.5792M17.9163 10.5792C17.9671 10.5285 18.036 10.4999 18.1078 10.4999L17.9163 10.5792ZM10.9732 15.0783C10.9327 15.1248 10.8777 15.156 10.8172 15.1669L10.7589 15.1709C10.6974 15.1684 10.6385 15.145 10.5919 15.1044C10.5454 15.0638 10.5142 15.0086 10.5033 14.948L10.4991 14.886L10.4982 4.17805L10.4981 3.17206L9.78683 3.8835L6.37866 7.29258L6.37843 7.29281C6.33255 7.33877 6.27169 7.36672 6.20693 7.37156C6.14636 7.37608 6.08616 7.36012 6.03592 7.32643L5.98762 7.28445C5.94636 7.23959 5.92136 7.18202 5.91686 7.12102C5.91237 7.06004 5.92865 6.99945 5.96286 6.94903L6.00668 6.89791L10.5759 2.32957L10.576 2.32951C10.6218 2.28364 10.6826 2.25576 10.7473 2.25092C10.8081 2.24637 10.8686 2.26248 10.9189 2.29643L10.9698 2.34006L15.5465 6.90945L15.5473 6.91018C15.5958 6.95844 15.6243 7.02332 15.627 7.09175C15.6297 7.16018 15.6063 7.22708 15.5617 7.27899C15.517 7.33089 15.4543 7.36395 15.3862 7.3715C15.3222 7.3786 15.258 7.36266 15.2048 7.32677L15.1534 7.28211L11.7508 3.88593L11.0398 3.17625V4.18083V14.9003V14.9004C11.0398 14.9658 11.0162 15.029 10.9732 15.0783Z" stroke="black" stroke-opacity="0.2" stroke-width="0.833333"/>
        <path d="M18.3787 17.1876V17.1874V10.785L18.3744 10.7231C18.3636 10.6625 18.3324 10.6073 18.2858 10.5666C18.2365 10.5236 18.1733 10.4999 18.1078 10.4999L18.3787 17.1876ZM18.3787 17.1876C18.3789 17.8422 18.1286 18.4722 17.679 18.9481C17.2308 19.4226 16.6185 19.7081 15.9671 19.7466L15.8105 19.7508H5.73283C5.07827 19.7509 4.44853 19.5005 3.97277 19.0509C3.49845 18.6028 3.21302 17.9906 3.17459 17.3393L3.17033 17.1827L3.17033 10.7709C3.17033 10.7709 3.17033 10.7708 3.17033 10.7708C3.17033 10.7708 3.17033 10.7708 3.17033 10.7708C3.17038 10.7022 3.19645 10.6362 3.24326 10.5861C3.29011 10.5359 3.35424 10.5054 3.4227 10.5008C3.49116 10.4961 3.55885 10.5176 3.61208 10.5609C3.66246 10.6019 3.69635 10.6595 3.70775 10.7232L3.712 10.785L3.712 17.1872C3.712 17.1872 3.712 17.1873 3.712 17.1873C3.712 17.1873 3.712 17.1874 3.712 17.1874C3.71178 17.6947 3.90236 18.1835 4.24589 18.5568C4.58947 18.9301 5.0609 19.1605 5.56654 19.2023L5.575 19.203M18.3787 17.1876L5.575 19.203M5.575 19.203L5.58349 19.2033M5.575 19.203L5.58349 19.2033M5.58349 19.2033L5.71549 19.2088L5.72415 19.2092M5.58349 19.2033L5.72415 19.2092M5.72415 19.2092H5.73283M5.72415 19.2092H5.73283M5.73283 19.2092H15.8162H15.8162M5.73283 19.2092H15.8162M15.8162 19.2092C16.3235 19.2091 16.8123 19.0183 17.1854 18.6745C17.5585 18.3307 17.7886 17.8591 17.8301 17.3535L17.8308 17.3452M15.8162 19.2092L17.8308 17.3452M17.8308 17.3452L17.8311 17.3369M17.8308 17.3452L17.8311 17.3369M17.8311 17.3369L17.8366 17.2058L17.837 17.1971M17.8311 17.3369L17.837 17.1971M17.837 17.1971V17.1883M17.837 17.1971V17.1883M17.837 17.1883V10.7708M17.837 17.1883V10.7708M17.837 10.7708C17.837 10.6989 17.8655 10.63 17.9163 10.5792M17.837 10.7708L17.9163 10.5792M17.9163 10.5792C17.9671 10.5285 18.036 10.4999 18.1078 10.4999L17.9163 10.5792ZM10.9732 15.0783C10.9327 15.1248 10.8777 15.156 10.8172 15.1669L10.7589 15.1709C10.6974 15.1684 10.6385 15.145 10.5919 15.1044C10.5454 15.0638 10.5142 15.0086 10.5033 14.948L10.4991 14.886L10.4982 4.17805L10.4981 3.17206L9.78683 3.8835L6.37866 7.29258L6.37843 7.29281C6.33255 7.33877 6.27169 7.36672 6.20693 7.37156C6.14636 7.37608 6.08616 7.36012 6.03592 7.32643L5.98762 7.28445C5.94636 7.23959 5.92136 7.18202 5.91686 7.12102C5.91237 7.06004 5.92865 6.99945 5.96286 6.94903L6.00668 6.89791L10.5759 2.32957L10.576 2.32951C10.6218 2.28364 10.6826 2.25576 10.7473 2.25092C10.8081 2.24637 10.8686 2.26248 10.9189 2.29643L10.9698 2.34006L15.5465 6.90945L15.5473 6.91018C15.5958 6.95844 15.6243 7.02332 15.627 7.09175C15.6297 7.16018 15.6063 7.22708 15.5617 7.27899C15.517 7.33089 15.4543 7.36395 15.3862 7.3715C15.3222 7.3786 15.258 7.36266 15.2048 7.32677L15.1534 7.28211L11.7508 3.88593L11.0398 3.17625V4.18083V14.9003V14.9004C11.0398 14.9658 11.0162 15.029 10.9732 15.0783Z" stroke="black" stroke-opacity="0.2" stroke-width="0.833333"/>
    </symbol>
</svg>