<svg width="22" height="22" viewBox="0 0 22 22" fill="none" xmlns="http://www.w3.org/2000/svg">
<path d="M18.3787 17.1876V17.1874V10.785L18.3744 10.7231C18.3636 10.6625 18.3324 10.6073 18.2858 10.5666C18.2365 10.5236 18.1733 10.4999 18.1078 10.4999L18.3787 17.1876ZM18.3787 17.1876C18.3789 17.8422 18.1286 18.4722 17.679 18.9481C17.2308 19.4226 16.6185 19.7081 15.9671 19.7466L15.8105 19.7508H5.73283C5.07827 19.7509 4.44853 19.5005 3.97277 19.0509C3.49845 18.6028 3.21302 17.9906 3.17459 17.3393L3.17033 17.1827L3.17033 10.7709C3.17033 10.7709 3.17033 10.7708 3.17033 10.7708C3.17033 10.7708 3.17033 10.7708 3.17033 10.7708C3.17038 10.7022 3.19645 10.6362 3.24326 10.5861C3.29011 10.5359 3.35424 10.5054 3.4227 10.5008C3.49116 10.4961 3.55885 10.5176 3.61208 10.5609C3.66246 10.6019 3.69635 10.6595 3.70775 10.7232L3.712 10.785L3.712 17.1872C3.712 17.1872 3.712 17.1873 3.712 17.1873C3.712 17.1873 3.712 17.1874 3.712 17.1874C3.71178 17.6947 3.90236 18.1835 4.24589 18.5568C4.58947 18.9301 5.0609 19.1605 5.56654 19.2023L5.575 19.203M18.3787 17.1876L5.575 19.203M5.575 19.203L5.58349 19.2033M5.575 19.203L5.58349 19.2033M5.58349 19.2033L5.71549 19.2088L5.72415 19.2092M5.58349 19.2033L5.72415 19.2092M5.72415 19.2092H5.73283M5.72415 19.2092H5.73283M5.73283 19.2092H15.8162H15.8162M5.73283 19.2092H15.8162M15.8162 19.2092C16.3235 19.2091 16.8123 19.0183 17.1854 18.6745C17.5585 18.3307 17.7886 17.8591 17.8301 17.3535L17.8308 17.3452M15.8162 19.2092L17.8308 17.3452M17.8308 17.3452L17.8311 17.3369M17.8308 17.3452L17.8311 17.3369M17.8311 17.3369L17.8366 17.2058L17.837 17.1971M17.8311 17.3369L17.837 17.1971M17.837 17.1971V17.1883M17.837 17.1971V17.1883M17.837 17.1883V10.7708M17.837 17.1883V10.7708M17.837 10.7708C17.837 10.6989 17.8655 10.63 17.9163 10.5792M17.837 10.7708L17.9163 10.5792M17.9163 10.5792C17.9671 10.5285 18.036 10.4999 18.1078 10.4999L17.9163 10.5792ZM10.9732 15.0783C10.9327 15.1248 10.8777 15.156 10.8172 15.1669L10.7589 15.1709C10.6974 15.1684 10.6385 15.145 10.5919 15.1044C10.5454 15.0638 10.5142 15.0086 10.5033 14.948L10.4991 14.886L10.4982 4.17805L10.4981 3.17206L9.78683 3.8835L6.37866 7.29258L6.37843 7.29281C6.33255 7.33877 6.27169 7.36672 6.20693 7.37156C6.14636 7.37608 6.08616 7.36012 6.03592 7.32643L5.98762 7.28445C5.94636 7.23959 5.92136 7.18202 5.91686 7.12102C5.91237 7.06004 5.92865 6.99945 5.96286 6.94903L6.00668 6.89791L10.5759 2.32957L10.576 2.32951C10.6218 2.28364 10.6826 2.25576 10.7473 2.25092C10.8081 2.24637 10.8686 2.26248 10.9189 2.29643L10.9698 2.34006L15.5465 6.90945L15.5473 6.91018C15.5958 6.95844 15.6243 7.02332 15.627 7.09175C15.6297 7.16018 15.6063 7.22708 15.5617 7.27899C15.517 7.33089 15.4543 7.36395 15.3862 7.3715C15.3222 7.3786 15.258 7.36266 15.2048 7.32677L15.1534 7.28211L11.7508 3.88593L11.0398 3.17625V4.18083V14.9003V14.9004C11.0398 14.9658 11.0162 15.029 10.9732 15.0783Z" fill="black"/>
<path d="M18.3787 17.1876V17.1874V10.785L18.3744 10.7231C18.3636 10.6625 18.3324 10.6073 18.2858 10.5666C18.2365 10.5236 18.1733 10.4999 18.1078 10.4999L18.3787 17.1876ZM18.3787 17.1876C18.3789 17.8422 18.1286 18.4722 17.679 18.9481C17.2308 19.4226 16.6185 19.7081 15.9671 19.7466L15.8105 19.7508H5.73283C5.07827 19.7509 4.44853 19.5005 3.97277 19.0509C3.49845 18.6028 3.21302 17.9906 3.17459 17.3393L3.17033 17.1827L3.17033 10.7709C3.17033 10.7709 3.17033 10.7708 3.17033 10.7708C3.17033 10.7708 3.17033 10.7708 3.17033 10.7708C3.17038 10.7022 3.19645 10.6362 3.24326 10.5861C3.29011 10.5359 3.35424 10.5054 3.4227 10.5008C3.49116 10.4961 3.55885 10.5176 3.61208 10.5609C3.66246 10.6019 3.69635 10.6595 3.70775 10.7232L3.712 10.785L3.712 17.1872C3.712 17.1872 3.712 17.1873 3.712 17.1873C3.712 17.1873 3.712 17.1874 3.712 17.1874C3.71178 17.6947 3.90236 18.1835 4.24589 18.5568C4.58947 18.9301 5.0609 19.1605 5.56654 19.2023L5.575 19.203M18.3787 17.1876L5.575 19.203M5.575 19.203L5.58349 19.2033M5.575 19.203L5.58349 19.2033M5.58349 19.2033L5.71549 19.2088L5.72415 19.2092M5.58349 19.2033L5.72415 19.2092M5.72415 19.2092H5.73283M5.72415 19.2092H5.73283M5.73283 19.2092H15.8162H15.8162M5.73283 19.2092H15.8162M15.8162 19.2092C16.3235 19.2091 16.8123 19.0183 17.1854 18.6745C17.5585 18.3307 17.7886 17.8591 17.8301 17.3535L17.8308 17.3452M15.8162 19.2092L17.8308 17.3452M17.8308 17.3452L17.8311 17.3369M17.8308 17.3452L17.8311 17.3369M17.8311 17.3369L17.8366 17.2058L17.837 17.1971M17.8311 17.3369L17.837 17.1971M17.837 17.1971V17.1883M17.837 17.1971V17.1883M17.837 17.1883V10.7708M17.837 17.1883V10.7708M17.837 10.7708C17.837 10.6989 17.8655 10.63 17.9163 10.5792M17.837 10.7708L17.9163 10.5792M17.9163 10.5792C17.9671 10.5285 18.036 10.4999 18.1078 10.4999L17.9163 10.5792ZM10.9732 15.0783C10.9327 15.1248 10.8777 15.156 10.8172 15.1669L10.7589 15.1709C10.6974 15.1684 10.6385 15.145 10.5919 15.1044C10.5454 15.0638 10.5142 15.0086 10.5033 14.948L10.4991 14.886L10.4982 4.17805L10.4981 3.17206L9.78683 3.8835L6.37866 7.29258L6.37843 7.29281C6.33255 7.33877 6.27169 7.36672 6.20693 7.37156C6.14636 7.37608 6.08616 7.36012 6.03592 7.32643L5.98762 7.28445C5.94636 7.23959 5.92136 7.18202 5.91686 7.12102C5.91237 7.06004 5.92865 6.99945 5.96286 6.94903L6.00668 6.89791L10.5759 2.32957L10.576 2.32951C10.6218 2.28364 10.6826 2.25576 10.7473 2.25092C10.8081 2.24637 10.8686 2.26248 10.9189 2.29643L10.9698 2.34006L15.5465 6.90945L15.5473 6.91018C15.5958 6.95844 15.6243 7.02332 15.627 7.09175C15.6297 7.16018 15.6063 7.22708 15.5617 7.27899C15.517 7.33089 15.4543 7.36395 15.3862 7.3715C15.3222 7.3786 15.258 7.36266 15.2048 7.32677L15.1534 7.28211L11.7508 3.88593L11.0398 3.17625V4.18083V14.9003V14.9004C11.0398 14.9658 11.0162 15.029 10.9732 15.0783Z" stroke="black" stroke-width="0.833333"/>
<path d="M18.3787 17.1876V17.1874V10.785L18.3744 10.7231C18.3636 10.6625 18.3324 10.6073 18.2858 10.5666C18.2365 10.5236 18.1733 10.4999 18.1078 10.4999L18.3787 17.1876ZM18.3787 17.1876C18.3789 17.8422 18.1286 18.4722 17.679 18.9481C17.2308 19.4226 16.6185 19.7081 15.9671 19.7466L15.8105 19.7508H5.73283C5.07827 19.7509 4.44853 19.5005 3.97277 19.0509C3.49845 18.6028 3.21302 17.9906 3.17459 17.3393L3.17033 17.1827L3.17033 10.7709C3.17033 10.7709 3.17033 10.7708 3.17033 10.7708C3.17033 10.7708 3.17033 10.7708 3.17033 10.7708C3.17038 10.7022 3.19645 10.6362 3.24326 10.5861C3.29011 10.5359 3.35424 10.5054 3.4227 10.5008C3.49116 10.4961 3.55885 10.5176 3.61208 10.5609C3.66246 10.6019 3.69635 10.6595 3.70775 10.7232L3.712 10.785L3.712 17.1872C3.712 17.1872 3.712 17.1873 3.712 17.1873C3.712 17.1873 3.712 17.1874 3.712 17.1874C3.71178 17.6947 3.90236 18.1835 4.24589 18.5568C4.58947 18.9301 5.0609 19.1605 5.56654 19.2023L5.575 19.203M18.3787 17.1876L5.575 19.203M5.575 19.203L5.58349 19.2033M5.575 19.203L5.58349 19.2033M5.58349 19.2033L5.71549 19.2088L5.72415 19.2092M5.58349 19.2033L5.72415 19.2092M5.72415 19.2092H5.73283M5.72415 19.2092H5.73283M5.73283 19.2092H15.8162H15.8162M5.73283 19.2092H15.8162M15.8162 19.2092C16.3235 19.2091 16.8123 19.0183 17.1854 18.6745C17.5585 18.3307 17.7886 17.8591 17.8301 17.3535L17.8308 17.3452M15.8162 19.2092L17.8308 17.3452M17.8308 17.3452L17.8311 17.3369M17.8308 17.3452L17.8311 17.3369M17.8311 17.3369L17.8366 17.2058L17.837 17.1971M17.8311 17.3369L17.837 17.1971M17.837 17.1971V17.1883M17.837 17.1971V17.1883M17.837 17.1883V10.7708M17.837 17.1883V10.7708M17.837 10.7708C17.837 10.6989 17.8655 10.63 17.9163 10.5792M17.837 10.7708L17.9163 10.5792M17.9163 10.5792C17.9671 10.5285 18.036 10.4999 18.1078 10.4999L17.9163 10.5792ZM10.9732 15.0783C10.9327 15.1248 10.8777 15.156 10.8172 15.1669L10.7589 15.1709C10.6974 15.1684 10.6385 15.145 10.5919 15.1044C10.5454 15.0638 10.5142 15.0086 10.5033 14.948L10.4991 14.886L10.4982 4.17805L10.4981 3.17206L9.78683 3.8835L6.37866 7.29258L6.37843 7.29281C6.33255 7.33877 6.27169 7.36672 6.20693 7.37156C6.14636 7.37608 6.08616 7.36012 6.03592 7.32643L5.98762 7.28445C5.94636 7.23959 5.92136 7.18202 5.91686 7.12102C5.91237 7.06004 5.92865 6.99945 5.96286 6.94903L6.00668 6.89791L10.5759 2.32957L10.576 2.32951C10.6218 2.28364 10.6826 2.25576 10.7473 2.25092C10.8081 2.24637 10.8686 2.26248 10.9189 2.29643L10.9698 2.34006L15.5465 6.90945L15.5473 6.91018C15.5958 6.95844 15.6243 7.02332 15.627 7.09175C15.6297 7.16018 15.6063 7.22708 15.5617 7.27899C15.517 7.33089 15.4543 7.36395 15.3862 7.3715C15.3222 7.3786 15.258 7.36266 15.2048 7.32677L15.1534 7.28211L11.7508 3.88593L11.0398 3.17625V4.18083V14.9003V14.9004C11.0398 14.9658 11.0162 15.029 10.9732 15.0783Z" stroke="black" stroke-opacity="0.2" stroke-width="0.833333"/>
<path d="M18.3787 17.1876V17.1874V10.785L18.3744 10.7231C18.3636 10.6625 18.3324 10.6073 18.2858 10.5666C18.2365 10.5236 18.1733 10.4999 18.1078 10.4999L18.3787 17.1876ZM18.3787 17.1876C18.3789 17.8422 18.1286 18.4722 17.679 18.9481C17.2308 19.4226 16.6185 19.7081 15.9671 19.7466L15.8105 19.7508H5.73283C5.07827 19.7509 4.44853 19.5005 3.97277 19.0509C3.49845 18.6028 3.21302 17.9906 3.17459 17.3393L3.17033 17.1827L3.17033 10.7709C3.17033 10.7709 3.17033 10.7708 3.17033 10.7708C3.17033 10.7708 3.17033 10.7708 3.17033 10.7708C3.17038 10.7022 3.19645 10.6362 3.24326 10.5861C3.29011 10.5359 3.35424 10.5054 3.4227 10.5008C3.49116 10.4961 3.55885 10.5176 3.61208 10.5609C3.66246 10.6019 3.69635 10.6595 3.70775 10.7232L3.712 10.785L3.712 17.1872C3.712 17.1872 3.712 17.1873 3.712 17.1873C3.712 17.1873 3.712 17.1874 3.712 17.1874C3.71178 17.6947 3.90236 18.1835 4.24589 18.5568C4.58947 18.9301 5.0609 19.1605 5.56654 19.2023L5.575 19.203M18.3787 17.1876L5.575 19.203M5.575 19.203L5.58349 19.2033M5.575 19.203L5.58349 19.2033M5.58349 19.2033L5.71549 19.2088L5.72415 19.2092M5.58349 19.2033L5.72415 19.2092M5.72415 19.2092H5.73283M5.72415 19.2092H5.73283M5.73283 19.2092H15.8162H15.8162M5.73283 19.2092H15.8162M15.8162 19.2092C16.3235 19.2091 16.8123 19.0183 17.1854 18.6745C17.5585 18.3307 17.7886 17.8591 17.8301 17.3535L17.8308 17.3452M15.8162 19.2092L17.8308 17.3452M17.8308 17.3452L17.8311 17.3369M17.8308 17.3452L17.8311 17.3369M17.8311 17.3369L17.8366 17.2058L17.837 17.1971M17.8311 17.3369L17.837 17.1971M17.837 17.1971V17.1883M17.837 17.1971V17.1883M17.837 17.1883V10.7708M17.837 17.1883V10.7708M17.837 10.7708C17.837 10.6989 17.8655 10.63 17.9163 10.5792M17.837 10.7708L17.9163 10.5792M17.9163 10.5792C17.9671 10.5285 18.036 10.4999 18.1078 10.4999L17.9163 10.5792ZM10.9732 15.0783C10.9327 15.1248 10.8777 15.156 10.8172 15.1669L10.7589 15.1709C10.6974 15.1684 10.6385 15.145 10.5919 15.1044C10.5454 15.0638 10.5142 15.0086 10.5033 14.948L10.4991 14.886L10.4982 4.17805L10.4981 3.17206L9.78683 3.8835L6.37866 7.29258L6.37843 7.29281C6.33255 7.33877 6.27169 7.36672 6.20693 7.37156C6.14636 7.37608 6.08616 7.36012 6.03592 7.32643L5.98762 7.28445C5.94636 7.23959 5.92136 7.18202 5.91686 7.12102C5.91237 7.06004 5.92865 6.99945 5.96286 6.94903L6.00668 6.89791L10.5759 2.32957L10.576 2.32951C10.6218 2.28364 10.6826 2.25576 10.7473 2.25092C10.8081 2.24637 10.8686 2.26248 10.9189 2.29643L10.9698 2.34006L15.5465 6.90945L15.5473 6.91018C15.5958 6.95844 15.6243 7.02332 15.627 7.09175C15.6297 7.16018 15.6063 7.22708 15.5617 7.27899C15.517 7.33089 15.4543 7.36395 15.3862 7.3715C15.3222 7.3786 15.258 7.36266 15.2048 7.32677L15.1534 7.28211L11.7508 3.88593L11.0398 3.17625V4.18083V14.9003V14.9004C11.0398 14.9658 11.0162 15.029 10.9732 15.0783Z" stroke="black" stroke-opacity="0.2" stroke-width="0.833333"/>
<path d="M18.3787 17.1876V17.1874V10.785L18.3744 10.7231C18.3636 10.6625 18.3324 10.6073 18.2858 10.5666C18.2365 10.5236 18.1733 10.4999 18.1078 10.4999L18.3787 17.1876ZM18.3787 17.1876C18.3789 17.8422 18.1286 18.4722 17.679 18.9481C17.2308 19.4226 16.6185 19.7081 15.9671 19.7466L15.8105 19.7508H5.73283C5.07827 19.7509 4.44853 19.5005 3.97277 19.0509C3.49845 18.6028 3.21302 17.9906 3.17459 17.3393L3.17033 17.1827L3.17033 10.7709C3.17033 10.7709 3.17033 10.7708 3.17033 10.7708C3.17033 10.7708 3.17033 10.7708 3.17033 10.7708C3.17038 10.7022 3.19645 10.6362 3.24326 10.5861C3.29011 10.5359 3.35424 10.5054 3.4227 10.5008C3.49116 10.4961 3.55885 10.5176 3.61208 10.5609C3.66246 10.6019 3.69635 10.6595 3.70775 10.7232L3.712 10.785L3.712 17.1872C3.712 17.1872 3.712 17.1873 3.712 17.1873C3.712 17.1873 3.712 17.1874 3.712 17.1874C3.71178 17.6947 3.90236 18.1835 4.24589 18.5568C4.58947 18.9301 5.0609 19.1605 5.56654 19.2023L5.575 19.203M18.3787 17.1876L5.575 19.203M5.575 19.203L5.58349 19.2033M5.575 19.203L5.58349 19.2033M5.58349 19.2033L5.71549 19.2088L5.72415 19.2092M5.58349 19.2033L5.72415 19.2092M5.72415 19.2092H5.73283M5.72415 19.2092H5.73283M5.73283 19.2092H15.8162H15.8162M5.73283 19.2092H15.8162M15.8162 19.2092C16.3235 19.2091 16.8123 19.0183 17.1854 18.6745C17.5585 18.3307 17.7886 17.8591 17.8301 17.3535L17.8308 17.3452M15.8162 19.2092L17.8308 17.3452M17.8308 17.3452L17.8311 17.3369M17.8308 17.3452L17.8311 17.3369M17.8311 17.3369L17.8366 17.2058L17.837 17.1971M17.8311 17.3369L17.837 17.1971M17.837 17.1971V17.1883M17.837 17.1971V17.1883M17.837 17.1883V10.7708M17.837 17.1883V10.7708M17.837 10.7708C17.837 10.6989 17.8655 10.63 17.9163 10.5792M17.837 10.7708L17.9163 10.5792M17.9163 10.5792C17.9671 10.5285 18.036 10.4999 18.1078 10.4999L17.9163 10.5792ZM10.9732 15.0783C10.9327 15.1248 10.8777 15.156 10.8172 15.1669L10.7589 15.1709C10.6974 15.1684 10.6385 15.145 10.5919 15.1044C10.5454 15.0638 10.5142 15.0086 10.5033 14.948L10.4991 14.886L10.4982 4.17805L10.4981 3.17206L9.78683 3.8835L6.37866 7.29258L6.37843 7.29281C6.33255 7.33877 6.27169 7.36672 6.20693 7.37156C6.14636 7.37608 6.08616 7.36012 6.03592 7.32643L5.98762 7.28445C5.94636 7.23959 5.92136 7.18202 5.91686 7.12102C5.91237 7.06004 5.92865 6.99945 5.96286 6.94903L6.00668 6.89791L10.5759 2.32957L10.576 2.32951C10.6218 2.28364 10.6826 2.25576 10.7473 2.25092C10.8081 2.24637 10.8686 2.26248 10.9189 2.29643L10.9698 2.34006L15.5465 6.90945L15.5473 6.91018C15.5958 6.95844 15.6243 7.02332 15.627 7.09175C15.6297 7.16018 15.6063 7.22708 15.5617 7.27899C15.517 7.33089 15.4543 7.36395 15.3862 7.3715C15.3222 7.3786 15.258 7.36266 15.2048 7.32677L15.1534 7.28211L11.7508 3.88593L11.0398 3.17625V4.18083V14.9003V14.9004C11.0398 14.9658 11.0162 15.029 10.9732 15.0783Z" stroke="black" stroke-opacity="0.2" stroke-width="0.833333"/>
<path d="M18.3787 17.1876V17.1874V10.785L18.3744 10.7231C18.3636 10.6625 18.3324 10.6073 18.2858 10.5666C18.2365 10.5236 18.1733 10.4999 18.1078 10.4999L18.3787 17.1876ZM18.3787 17.1876C18.3789 17.8422 18.1286 18.4722 17.679 18.9481C17.2308 19.4226 16.6185 19.7081 15.9671 19.7466L15.8105 19.7508H5.73283C5.07827 19.7509 4.44853 19.5005 3.97277 19.0509C3.49845 18.6028 3.21302 17.9906 3.17459 17.3393L3.17033 17.1827L3.17033 10.7709C3.17033 10.7709 3.17033 10.7708 3.17033 10.7708C3.17033 10.7708 3.17033 10.7708 3.17033 10.7708C3.17038 10.7022 3.19645 10.6362 3.24326 10.5861C3.29011 10.5359 3.35424 10.5054 3.4227 10.5008C3.49116 10.4961 3.55885 10.5176 3.61208 10.5609C3.66246 10.6019 3.69635 10.6595 3.70775 10.7232L3.712 10.785L3.712 17.1872C3.712 17.1872 3.712 17.1873 3.712 17.1873C3.712 17.1873 3.712 17.1874 3.712 17.1874C3.71178 17.6947 3.90236 18.1835 4.24589 18.5568C4.58947 18.9301 5.0609 19.1605 5.56654 19.2023L5.575 19.203M18.3787 17.1876L5.575 19.203M5.575 19.203L5.58349 19.2033M5.575 19.203L5.58349 19.2033M5.58349 19.2033L5.71549 19.2088L5.72415 19.2092M5.58349 19.2033L5.72415 19.2092M5.72415 19.2092H5.73283M5.72415 19.2092H5.73283M5.73283 19.2092H15.8162H15.8162M5.73283 19.2092H15.8162M15.8162 19.2092C16.3235 19.2091 16.8123 19.0183 17.1854 18.6745C17.5585 18.3307 17.7886 17.8591 17.8301 17.3535L17.8308 17.3452M15.8162 19.2092L17.8308 17.3452M17.8308 17.3452L17.8311 17.3369M17.8308 17.3452L17.8311 17.3369M17.8311 17.3369L17.8366 17.2058L17.837 17.1971M17.8311 17.3369L17.837 17.1971M17.837 17.1971V17.1883M17.837 17.1971V17.1883M17.837 17.1883V10.7708M17.837 17.1883V10.7708M17.837 10.7708C17.837 10.6989 17.8655 10.63 17.9163 10.5792M17.837 10.7708L17.9163 10.5792M17.9163 10.5792C17.9671 10.5285 18.036 10.4999 18.1078 10.4999L17.9163 10.5792ZM10.9732 15.0783C10.9327 15.1248 10.8777 15.156 10.8172 15.1669L10.7589 15.1709C10.6974 15.1684 10.6385 15.145 10.5919 15.1044C10.5454 15.0638 10.5142 15.0086 10.5033 14.948L10.4991 14.886L10.4982 4.17805L10.4981 3.17206L9.78683 3.8835L6.37866 7.29258L6.37843 7.29281C6.33255 7.33877 6.27169 7.36672 6.20693 7.37156C6.14636 7.37608 6.08616 7.36012 6.03592 7.32643L5.98762 7.28445C5.94636 7.23959 5.92136 7.18202 5.91686 7.12102C5.91237 7.06004 5.92865 6.99945 5.96286 6.94903L6.00668 6.89791L10.5759 2.32957L10.576 2.32951C10.6218 2.28364 10.6826 2.25576 10.7473 2.25092C10.8081 2.24637 10.8686 2.26248 10.9189 2.29643L10.9698 2.34006L15.5465 6.90945L15.5473 6.91018C15.5958 6.95844 15.6243 7.02332 15.627 7.09175C15.6297 7.16018 15.6063 7.22708 15.5617 7.27899C15.517 7.33089 15.4543 7.36395 15.3862 7.3715C15.3222 7.3786 15.258 7.36266 15.2048 7.32677L15.1534 7.28211L11.7508 3.88593L11.0398 3.17625V4.18083V14.9003V14.9004C11.0398 14.9658 11.0162 15.029 10.9732 15.0783Z" stroke="black" stroke-opacity="0.2" stroke-width="0.833333"/>
</svg>
